<?xml version="1.0" encoding="UTF-8"?>
<svg version="1.1" xmlns="http://www.w3.org/2000/svg" width="281" height="227">
<path d="M0 0 C1.00874176 -0.00095673 2.01748352 -0.00191345 3.05679321 -0.00289917 C5.1763719 -0.00357676 7.2959527 -0.00175194 9.41552734 0.00244141 C12.67420025 0.00782926 15.93273741 0.00246504 19.19140625 -0.00390625 C21.25260447 -0.00324605 23.31380261 -0.0019661 25.375 0 C26.35407318 -0.00202423 27.33314636 -0.00404846 28.34188843 -0.00613403 C29.24017365 -0.00298187 30.13845886 0.00017029 31.06396484 0.00341797 C31.85781586 0.00421356 32.65166687 0.00500916 33.46957397 0.00582886 C35.2890625 0.1328125 35.2890625 0.1328125 36.2890625 1.1328125 C36.41204833 3.21500441 36.46902658 5.30112787 36.5 7.38671875 C36.52602295 8.70430176 36.5520459 10.02188477 36.57885742 11.37939453 C36.59210052 12.08308167 36.60534363 12.7867688 36.61898804 13.51177979 C37.62796331 62.38935658 50.4806845 106.04906122 86.390625 140.58203125 C95.95851921 149.48156229 106.60242749 156.35847176 118.2890625 162.1328125 C118.2890625 162.7928125 118.2890625 163.4528125 118.2890625 164.1328125 C90.01838729 164.99864079 61.73862969 165.31242345 33.45596313 165.41992188 C29.73560487 165.43468843 26.01550069 165.45902447 22.29525757 165.49169922 C17.82666161 165.53031251 13.35840918 165.5482681 8.88965225 165.55176353 C7.23322363 165.556228 5.57679588 165.56740919 3.92046738 165.58616066 C-13.16415321 165.76939588 -28.27653244 163.40783922 -41.5234375 151.6328125 C-42.2453125 150.8078125 -42.9671875 149.9828125 -43.7109375 149.1328125 C-44.18917969 148.64554688 -44.66742188 148.15828125 -45.16015625 147.65625 C-56.5572792 135.54142409 -57.02666575 120.28296088 -57.01171875 104.61328125 C-57.01561363 102.90611163 -57.01994991 101.19894296 -57.02470398 99.49177551 C-57.03213745 95.92376558 -57.03189623 92.35585464 -57.02661133 88.7878418 C-57.02082594 84.24569935 -57.03773918 79.70396592 -57.060956 75.16189098 C-57.07578543 71.63826685 -57.07655251 68.11473907 -57.07344627 64.59108925 C-57.07395505 62.91797388 -57.07910808 61.24485247 -57.08925819 59.57176781 C-57.18157918 42.22572535 -54.58937452 27.49529492 -42.2265625 14.45703125 C-29.99779621 3.15871457 -16.11229871 -0.03373056 0 0 Z M-15.5859375 42.9453125 C-19.86221509 48.25648832 -20.93955319 52.81439163 -20.5859375 59.5703125 C-19.77715201 66.34737713 -17.7850778 71.58197576 -12.5859375 76.1328125 C-10.02100767 78.32316733 -10.02100767 78.32316733 -7.7109375 78.1328125 C-7.81116211 78.67072418 -7.91138672 79.20863586 -8.01464844 79.7628479 C-9.0591752 85.37473667 -10.09619062 90.98797676 -11.12890625 96.60205078 C-11.51501119 98.695504 -11.90301325 100.78860827 -12.29296875 102.88134766 C-12.85398595 105.89395277 -13.4081105 108.90775759 -13.9609375 111.921875 C-14.13592773 112.85335358 -14.31091797 113.78483215 -14.49121094 114.74453735 C-14.65137695 115.62499725 -14.81154297 116.50545715 -14.9765625 117.41259766 C-15.11868164 118.18092926 -15.26080078 118.94926086 -15.40722656 119.74087524 C-15.75981081 122.51772419 -15.7109375 125.33366876 -15.7109375 128.1328125 C-9.7709375 128.1328125 -3.8309375 128.1328125 2.2890625 128.1328125 C2.31411865 125.99248535 2.3391748 123.8521582 2.36499023 121.64697266 C2.44835661 114.5861525 2.53705626 107.52540666 2.62840176 100.46468544 C2.68363572 96.18253809 2.73705648 91.90038392 2.78637695 87.61816406 C2.83401353 83.48787762 2.88635608 79.35767549 2.94200325 75.22748947 C2.96243001 73.64940863 2.98114256 72.07130467 2.99813652 70.49318314 C3.02217347 68.28785061 3.05222884 66.08267799 3.08374023 63.87744141 C3.09928452 62.62057526 3.1148288 61.36370911 3.13084412 60.0687561 C3.2890625 57.1328125 3.2890625 57.1328125 4.2890625 55.1328125 C6.3515625 54.5078125 6.3515625 54.5078125 8.2890625 54.1328125 C8.5365625 54.8753125 8.7840625 55.6178125 9.0390625 56.3828125 C10.38053551 59.33405312 11.89811776 60.98096224 14.2890625 63.1328125 C16.28825447 62.48671212 16.28825447 62.48671212 18.2890625 61.1328125 C19.38240254 58.77039198 19.38240254 58.77039198 19.9765625 56.0703125 C21.22921694 51.19265806 21.22921694 51.19265806 22.2890625 50.1328125 C22.74804263 46.82815559 22.46978636 45.41780013 20.6640625 42.5703125 C15.09632058 36.85605106 10.31501859 35.01168966 2.5390625 34.8203125 C-5.49200648 34.92765364 -10.09899525 37.14289924 -15.5859375 42.9453125 Z " fill="#1A3A76" transform="translate(72.7109375,42.8671875)"/>
<path d="M0 0 C2.60128867 1.53992499 5.16747348 3.10930614 7.69921875 4.76171875 C28.31531915 18.04765012 50.15180403 23.48403536 74 28 C77.905018 71.80571501 70.32312942 117.69023254 41.46582031 152.30273438 C32.4782133 162.70943723 22.43620553 171.39282058 11 179 C10.09765625 179.60199219 9.1953125 180.20398438 8.265625 180.82421875 C2.96987043 184.06742415 2.96987043 184.06742415 -0.921875 183.796875 C-10.22971465 181.38723123 -19.14832017 173.50710793 -26 167 C-26 166.34 -26 165.68 -26 165 C-24.18628906 164.56300781 -24.18628906 164.56300781 -22.3359375 164.1171875 C-0.85736419 158.8037189 18.70083789 150.14518331 33 132.4375 C33.99 131.2309375 33.99 131.2309375 35 130 C35.66 130 36.32 130 37 130 C37.03997631 128.11571823 37.03997631 128.11571823 36 126 C33.64054047 124.4179171 31.47357923 123.16747187 28.9375 121.9375 C28.2244873 121.58751953 27.51147461 121.23753906 26.77685547 120.87695312 C12.76493535 114.34891664 -2.04794263 113.61747405 -17 117 C-18.21816406 117.25716797 -18.21816406 117.25716797 -19.4609375 117.51953125 C-26.09073358 119.18234418 -31.43602577 122.48451306 -37.1171875 126.16015625 C-40 128 -40 128 -42.31640625 129.125 C-44.58764232 130.30541039 -44.9583888 131.70845536 -46 134 C-47.625 135.75 -47.625 135.75 -49 137 C-53.02882117 135.65705961 -53.89434974 133.19817181 -55.75 129.625 C-56.27062012 128.63209961 -56.27062012 128.63209961 -56.80175781 127.61914062 C-69.85294692 101.94428088 -74.21130733 74.79646882 -74.0625 46.3125 C-74.05747338 44.62825654 -74.05291253 42.94401163 -74.04882812 41.25976562 C-74.03791827 37.17314047 -74.02071821 33.08658672 -74 29 C-70.64340761 27.56462745 -67.48074034 26.58879696 -63.89453125 25.921875 C-62.9202417 25.73407471 -61.94595215 25.54627441 -60.94213867 25.3527832 C-59.90935791 25.15386475 -58.87657715 24.95494629 -57.8125 24.75 C-36.65043996 20.4546123 -17.12782168 13.53941218 0 0 Z M-23 65 C-28.83977298 72.84198086 -30.11747449 80.38294685 -29 90 C-27.76071886 93.65365756 -26.08742029 96.76571217 -24 100 C-23.4225 100.928125 -22.845 101.85625 -22.25 102.8125 C-16.06277883 108.82785391 -8.0739145 111.92431259 0.5078125 112.03125 C8.48060072 111.54361769 15.24642777 108.59807027 21 103 C26.41283476 96.09234169 28.36164797 89.22316481 27.875 80.5 C26.71800574 71.28261239 23.5108973 65.53670508 16.26953125 59.6640625 C3.94866462 50.63017406 -13.31149332 53.31680077 -23 65 Z " fill="#1B4481" transform="translate(191,12)"/>
<path d="M0 0 C2.41916698 1.45507092 4.04705959 3.04782109 5.9296875 5.1484375 C6.86748047 6.16550781 6.86748047 6.16550781 7.82421875 7.203125 C9.1171875 9.2734375 9.1171875 9.2734375 9.046875 11.1953125 C1.76357901 27.47562118 -15.45884155 40.67884472 -29.8828125 50.2734375 C-30.78515625 50.87542969 -31.6875 51.47742188 -32.6171875 52.09765625 C-37.91294207 55.34086165 -37.91294207 55.34086165 -41.8046875 55.0703125 C-51.11252715 52.66066873 -60.03113267 44.78054543 -66.8828125 38.2734375 C-66.8828125 37.6134375 -66.8828125 36.9534375 -66.8828125 36.2734375 C-65.67367187 35.98210937 -64.46453125 35.69078125 -63.21875 35.390625 C-41.86705995 30.10854537 -22.17120431 21.51871758 -8.0078125 3.8359375 C-3.65663754 -1.4110676 -3.65663754 -1.4110676 0 0 Z " fill="#CDCECF" transform="translate(231.8828125,140.7265625)"/>
<path d="M0 0 C0.99 0.33 1.98 0.66 3 1 C4.87016644 6.61049932 4.80426041 12.75653674 2.8125 18.3125 C-2.79527099 26.62747078 -2.79527099 26.62747078 -6.16015625 27.66796875 C-6.76730469 27.77753906 -7.37445313 27.88710937 -8 28 C-7.75765625 29.19488037 -7.5153125 30.38976074 -7.265625 31.62084961 C-6.36233088 36.08640202 -5.47052201 40.55418587 -4.58203125 45.02270508 C-4.19710408 46.95040874 -3.80913234 48.87750721 -3.41796875 50.80395508 C-2.85380726 53.58518487 -2.30090554 56.36846172 -1.75 59.15234375 C-1.57500977 60.00271713 -1.40001953 60.85309052 -1.21972656 61.72923279 C-0.14177442 67.24916245 0.24505839 72.37235945 0 78 C-1.8855253 79.8855253 -4.57768831 79.13246689 -7.08203125 79.13671875 C-8.27892578 79.13091797 -8.27892578 79.13091797 -9.5 79.125 C-10.29792969 79.12886719 -11.09585938 79.13273437 -11.91796875 79.13671875 C-17.87339233 79.12660767 -17.87339233 79.12660767 -19 78 C-19.1048716 75.80747381 -19.13857029 73.61152654 -19.14526367 71.41650391 C-19.14862228 70.72867325 -19.1519809 70.04084259 -19.15544128 69.33216858 C-19.164979 67.04694843 -19.16689591 64.76180134 -19.16796875 62.4765625 C-19.17117978 60.89334075 -19.17454373 59.31011931 -19.17805481 57.72689819 C-19.18405342 54.40288607 -19.185894 51.07889997 -19.18530273 47.75488281 C-19.18520116 43.49196425 -19.198845 39.22921244 -19.21607494 34.96633339 C-19.22718581 31.69441967 -19.22922221 28.42254635 -19.22869301 25.15061569 C-19.22987483 23.57891643 -19.23430788 22.00721619 -19.24202538 20.43553543 C-19.25180539 18.23766623 -19.24895509 16.04016 -19.24291992 13.84228516 C-19.24434494 12.59065582 -19.24576996 11.33902649 -19.24723816 10.04946899 C-19 7 -19 7 -17 4 C-15.68 4 -14.36 4 -13 4 C-12.4225 5.134375 -11.845 6.26875 -11.25 7.4375 C-9.64507365 10.37310297 -9.64507365 10.37310297 -6.75 11.9375 C-6.1725 11.958125 -5.595 11.97875 -5 12 C-3.20931427 9.3139714 -2.33944209 7.3373411 -1.375 4.3125 C-1.11460938 3.50425781 -0.85421875 2.69601563 -0.5859375 1.86328125 C-0.39257812 1.24839844 -0.19921875 0.63351563 0 0 Z " fill="#DCDDDE" transform="translate(94,93)"/>
<path d="M0 0 C0.495 1.485 0.495 1.485 1 3 C0.51756836 3.31638428 0.03513672 3.63276855 -0.46191406 3.95874023 C-10.20130208 10.36019962 -19.80994223 16.82162417 -29 24 C-29.85078125 24.64324219 -30.7015625 25.28648438 -31.578125 25.94921875 C-45.98986573 38.15270889 -50.45581798 59.08748857 -52 77 C-52.99 77 -53.98 77 -55 77 C-57.9071636 70.68007913 -58.47437312 65.00487781 -58.7890625 58.07421875 C-58.87367193 54.96140958 -58.87367193 54.96140958 -60 52 C-60.219565 49.6454044 -60.39064252 47.28617211 -60.53515625 44.92578125 C-60.57813339 44.2419487 -60.62111053 43.55811615 -60.66539001 42.8535614 C-60.80153681 40.67342222 -60.93208855 38.49298904 -61.0625 36.3125 C-61.15392809 34.83265946 -61.24572066 33.35284139 -61.33789062 31.87304688 C-61.56282069 28.24894893 -61.78273474 24.62456645 -62 21 C-58.64340761 19.56462745 -55.48074034 18.58879696 -51.89453125 17.921875 C-50.43261353 17.63993286 -50.43261353 17.63993286 -48.94116211 17.35229492 C-47.90870361 17.1535376 -46.87624512 16.95478027 -45.8125 16.75 C-29.19965276 13.39137826 -14.66602944 8.52273687 0 0 Z " fill="#567CAC" transform="translate(179,20)"/>
<path d="M0 0 C0.33 0 0.66 0 1 0 C1.14695312 0.94359375 1.14695312 0.94359375 1.296875 1.90625 C2.79521198 10.48293756 5.15303211 17.26765479 12 23 C19.40842623 27.98644073 26.67803614 29.71035041 35.5703125 28.546875 C40.10955906 27.52517963 44.31682599 25.72021207 47.59765625 22.3671875 C49 21 49 21 51 21 C51.28875 20.195625 51.5775 19.39125 51.875 18.5625 C53 16 53 16 55 15 C55.19258541 19.14058636 55.16789459 22.38684234 53 26 C50.5 26.625 50.5 26.625 48 27 C47.01 28.485 47.01 28.485 46 30 C48.1385485 32.1385485 49.13275314 32.42655063 52 33 C52 33.66 52 34.32 52 35 C52.969375 34.87625 53.93875 34.7525 54.9375 34.625 C60.18003377 34.57128551 64.08428501 37.7946188 68 41 C68 41.33 68 41.66 68 42 C63.41927436 41.69461829 60.17045555 40.69138852 56.0625 38.625 C42.47918735 32.17012002 27.47128279 31.72623718 13 35 C12.18789062 35.17144531 11.37578125 35.34289062 10.5390625 35.51953125 C3.90926642 37.18234418 -1.43602577 40.48451306 -7.1171875 44.16015625 C-10 46 -10 46 -12.31640625 47.125 C-14.58764232 48.30541039 -14.9583888 49.70845536 -16 52 C-17.625 53.75 -17.625 53.75 -19 55 C-23.23797984 53.58734005 -24.13900943 50.57740269 -26.0625 46.8125 C-26.41376953 46.15185547 -26.76503906 45.49121094 -27.12695312 44.81054688 C-29.13003867 40.97477058 -30.92089836 37.21276404 -32 33 C-31.67 32.01 -31.34 31.02 -31 30 C-31 28.68 -31 27.36 -31 26 C-30.01 25.67 -29.02 25.34 -28 25 C-28 28.3 -28 31.6 -28 35 C-27.34 35 -26.68 35 -26 35 C-25.81824219 35.61488281 -25.63648438 36.22976562 -25.44921875 36.86328125 C-25.19785156 37.67152344 -24.94648438 38.47976562 -24.6875 39.3125 C-24.44386719 40.11300781 -24.20023438 40.91351563 -23.94921875 41.73828125 C-22.95817977 44.09964573 -21.91925057 45.33879993 -20 47 C-17.37098712 45.47793991 -15.15634036 44.15634036 -13 42 C-11.989375 41.690625 -10.97875 41.38125 -9.9375 41.0625 C-8.968125 40.711875 -7.99875 40.36125 -7 40 C-6.67 39.01 -6.34 38.02 -6 37 C-4.515 37.495 -4.515 37.495 -3 38 C-3 37.34 -3 36.68 -3 36 C-0.94037148 35.32451422 1.12284322 34.65995688 3.1875 34 C4.33605469 33.62875 5.48460937 33.2575 6.66796875 32.875 C9.64320812 32.09369447 11.95283896 31.81636694 15 32 C15 31.01 15 30.02 15 29 C13.22671235 27.60272683 13.22671235 27.60272683 11 26.4375 C8.75 25.18359375 8.75 25.18359375 7 24 C7 23.34 7 22.68 7 22 C6.34 21.67 5.68 21.34 5 21 C5 20.34 5 19.68 5 19 C4.34 19 3.68 19 3 19 C1.375 17.6875 1.375 17.6875 0 16 C0 10.66666667 0 5.33333333 0 0 Z " fill="#12163E" transform="translate(161,94)"/>
<path d="M0 0 C0.93978195 -0.0033284 1.8795639 -0.0066568 2.8478241 -0.01008606 C4.82196567 -0.01512473 6.79611568 -0.01749534 8.77026367 -0.01733398 C11.80075795 -0.01953691 14.83089735 -0.03776936 17.86132812 -0.05664062 C19.78255084 -0.05957183 21.70377528 -0.06155845 23.625 -0.0625 C24.98743584 -0.07327827 24.98743584 -0.07327827 26.37739563 -0.08427429 C27.21554306 -0.08119766 28.05369049 -0.07812103 28.91723633 -0.07495117 C29.65557205 -0.07637619 30.39390778 -0.07780121 31.15461731 -0.07926941 C32.98046875 0.16796875 32.98046875 0.16796875 34.98046875 2.16796875 C35.20751953 5.14892578 35.20751953 5.14892578 35.17578125 8.92578125 C35.17295135 9.5888327 35.17012146 10.25188416 35.16720581 10.93502808 C35.1560031 13.05452458 35.13089926 15.17359979 35.10546875 17.29296875 C35.09543903 18.72916057 35.08631316 20.165359 35.078125 21.6015625 C35.05606375 25.12383503 35.02153369 28.64586078 34.98046875 32.16796875 C34.32046875 32.16796875 33.66046875 32.16796875 32.98046875 32.16796875 C32.95154926 27.87631613 32.93369757 23.58468839 32.91796875 19.29296875 C32.90958984 18.06964844 32.90121094 16.84632812 32.89257812 15.5859375 C32.88935547 14.41933594 32.88613281 13.25273438 32.8828125 12.05078125 C32.87757568 10.97199707 32.87233887 9.89321289 32.86694336 8.78173828 C32.98046875 6.16796875 32.98046875 6.16796875 33.98046875 4.16796875 C29.50049184 4.14292588 25.0205539 4.12494954 20.54052734 4.11303711 C19.02196542 4.1080619 17.50340815 4.10127934 15.98486328 4.0925293 C7.73972652 4.04626945 -0.39577913 4.12023137 -8.61035156 4.95141602 C-11.01953125 5.16796875 -11.01953125 5.16796875 -15.01953125 5.16796875 C-16.77115594 5.31659145 -18.52127162 5.48394142 -20.26953125 5.66796875 C-21.1615625 5.76078125 -22.05359375 5.85359375 -22.97265625 5.94921875 C-23.648125 6.02140625 -24.32359375 6.09359375 -25.01953125 6.16796875 C-25.67953125 8.14796875 -26.33953125 10.12796875 -27.01953125 12.16796875 C-28.05078125 12.18859375 -29.08203125 12.20921875 -30.14453125 12.23046875 C-34.79031417 13.35444849 -35.99232459 14.8767993 -38.7578125 18.57421875 C-40.01953125 20.16796875 -40.01953125 20.16796875 -42.01953125 21.16796875 C-42.67725553 24.19731366 -42.67725553 24.19731366 -43.01953125 27.16796875 C-43.67953125 27.16796875 -44.33953125 27.16796875 -45.01953125 27.16796875 C-45.34953125 27.82796875 -45.67953125 28.48796875 -46.01953125 29.16796875 C-46.32890625 29.74546875 -46.63828125 30.32296875 -46.95703125 30.91796875 C-48.22428401 33.60156284 -49.12046539 36.34233319 -50.01953125 39.16796875 C-49.35953125 39.49796875 -48.69953125 39.82796875 -48.01953125 40.16796875 C-48.63828125 41.01359375 -49.25703125 41.85921875 -49.89453125 42.73046875 C-52.15000861 46.0816922 -53.0807877 49.25653729 -54.01953125 53.16796875 C-54.34953125 53.16796875 -54.67953125 53.16796875 -55.01953125 53.16796875 C-57.05352421 42.0734617 -54.06867733 31.61975949 -48.01953125 22.16796875 C-39.58938453 10.86545349 -27.97249851 3.09350444 -13.97680664 0.63305664 C-9.29462291 0.08277223 -4.70963187 0.00583519 0 0 Z " fill="#335E88" transform="translate(72.01953125,42.83203125)"/>
<path d="M0 0 C0.66 0.33 1.32 0.66 2 1 C3.22658609 35.27626686 -3.30752118 69.89998718 -22 99 C-26.33333333 94.66666667 -30.66666667 90.33333333 -35 86 C-32.00519083 85.1276588 -29.36424089 84.89170234 -26.25 84.9375 C-25.05117187 84.95103516 -25.05117187 84.95103516 -23.828125 84.96484375 C-23.22484375 84.97644531 -22.6215625 84.98804688 -22 85 C-22 86.65 -22 88.3 -22 90 C-18.0415831 86.40143918 -16.31210539 82.14749037 -15 77 C-15.29891234 73.23257221 -15.29891234 73.23257221 -16 70 C-15.34 70 -14.68 70 -14 70 C-14 69.34 -14 68.68 -14 68 C-12.02 67.505 -12.02 67.505 -10 67 C-8.26747456 61.80242367 -7.62002491 56.91709867 -7.24609375 51.453125 C-7 49 -7 49 -6 46 C-6.99 46 -7.98 46 -9 46 C-7.49123966 38.4561983 -5.32700761 31.15521673 -3.12109375 23.79296875 C-1.51315778 18.35287877 -0.74306049 13.42040129 -0.4375 7.75 C-0.37272461 6.63238281 -0.37272461 6.63238281 -0.30664062 5.4921875 C-0.20103275 3.661651 -0.10005799 1.83084824 0 0 Z " fill="#14163C" transform="translate(264,52)"/>
<path d="M0 0 C0.66 0 1.32 0 2 0 C7 5.47619048 7 5.47619048 7 8 C7.99 8.33 8.98 8.66 10 9 C10 9.66 10 10.32 10 11 C10.99 11 11.98 11 13 11 C13.66 10.34 14.32 9.68 15 9 C15.185625 9.94875 15.37125 10.8975 15.5625 11.875 C16.036875 12.90625 16.51125 13.9375 17 15 C20.42215347 16.25156841 20.42215347 16.25156841 24 17 C25.9375 18.625 25.9375 18.625 27 20 C27.33 19.34 27.66 18.68 28 18 C30 18 30 18 32.4375 18.5625 C35.10849914 19.22570988 35.10849914 19.22570988 38 18 C39.5 19.375 39.5 19.375 41 21 C41 21.66 41 22.32 41 23 C49.44179246 23.10508455 57.68997774 22.99756989 66.09765625 22.12109375 C69 22 69 22 71.50170898 22.48852539 C76.30743429 23.19115604 81.02551408 23.10273659 85.875 23.0625 C86.91769043 23.05871338 87.96038086 23.05492676 89.03466797 23.05102539 C92.35648798 23.03884389 95.67821978 23.02021953 99 23 C103.37499782 22.97336958 107.74995143 22.95338837 112.125 22.9375 C113.12515137 22.92920166 114.12530273 22.92090332 115.15576172 22.91235352 C119.8909813 22.89573444 124.34350546 23.00441952 129 24 C129 24.33 129 24.66 129 25 C117.41147466 25.0931934 105.82304031 25.1640133 94.23421478 25.20724869 C88.85148259 25.22801259 83.46900913 25.25612267 78.08642578 25.30175781 C72.87979128 25.34561867 67.67340368 25.369221 62.46659851 25.37950897 C60.4925295 25.38682882 58.51847209 25.40111984 56.54450989 25.42292023 C38.33733551 25.61577368 22.40985546 24.14209374 8.1875 11.5 C7.465625 10.675 6.74375 9.85 6 9 C5.46375 8.40832031 4.9275 7.81664062 4.375 7.20703125 C0 2.29528356 0 2.29528356 0 0 Z " fill="#0B0F30" transform="translate(23,183)"/>
<path d="M0 0 C0.33 0 0.66 0 1 0 C1.05534912 0.81154541 1.11069824 1.62309082 1.16772461 2.45922852 C1.42166393 6.16050649 1.67954595 9.86149975 1.9375 13.5625 C2.02451172 14.83931641 2.11152344 16.11613281 2.20117188 17.43164062 C2.28818359 18.67236328 2.37519531 19.91308594 2.46484375 21.19140625 C2.543396 22.32779541 2.62194824 23.46418457 2.70288086 24.63500977 C3.01013303 28.11476051 3.49624535 31.54389602 4 35 C4.24498602 38.69423368 4.43815094 42.38815727 4.62109375 46.0859375 C4.80865234 47.52839844 4.80865234 47.52839844 5 49 C5.66 49.33 6.32 49.66 7 50 C7.33 50.99 7.66 51.98 8 53 C8.33 53 8.66 53 9 53 C9.33 50.03 9.66 47.06 10 44 C10.33 44 10.66 44 11 44 C11.029729 45.07930786 11.029729 45.07930786 11.06005859 46.18041992 C11.44355808 64.6961409 11.44355808 64.6961409 14 83 C13.34 83 12.68 83 12 83 C2.92501902 60.94482082 -0.19811924 39.48445437 -0.0625 15.8125 C-0.05747197 14.27278792 -0.05291138 12.73307425 -0.04882812 11.19335938 C-0.03793264 7.46220572 -0.02074082 3.73111346 0 0 Z " fill="#4B597C" transform="translate(117,44)"/>
<path d="M0 0 C2.65071021 1.57385919 5.27504971 3.17526945 7.875 4.83203125 C14.58706379 9.08580168 21.16480159 12.60707626 28.515625 15.67578125 C31 17 31 17 32 20 C29.23723823 19.47731534 26.6739124 18.89130413 24 18 C23.67 18.66 23.34 19.32 23 20 C22.01 19.34 21.02 18.68 20 18 C19.01 18 18.02 18 17 18 C17 16.68 17 15.36 17 14 C15.56445975 13.49440092 14.1264798 12.9957251 12.6875 12.5 C11.48673828 12.08234375 11.48673828 12.08234375 10.26171875 11.65625 C7.91230578 10.86066893 7.91230578 10.86066893 5 11 C4.67 10.34 4.34 9.68 4 9 C3.01 9.66 2.02 10.32 1 11 C0.01 9.68 -0.98 8.36 -2 7 C-2.66 7.66 -3.32 8.32 -4 9 C-3.34 9.66 -2.68 10.32 -2 11 C-5 12 -5 12 -8 11 C-11.70317894 12.75901 -13.63080487 14.72825434 -16 18 C-17.66666667 18 -19.33333333 18 -21 18 C-16.48746518 13.2367688 -16.48746518 13.2367688 -13.8125 11.9375 C-11.84112157 11.15959927 -11.84112157 11.15959927 -11.20703125 9.17578125 C-9.60383122 6.28587051 -7.61005843 5.07337229 -4.875 3.25 C-3.96492188 2.63640625 -3.05484375 2.0228125 -2.1171875 1.390625 C-1.41851562 0.93171875 -0.71984375 0.4728125 0 0 Z " fill="#2969A4" transform="translate(191,12)"/>
<path d="M0 0 C0.66 0.33 1.32 0.66 2 1 C2.30804828 9.60823799 1.78996244 18.10797033 1.125 26.6875 C1.04652832 27.74380615 0.96805664 28.8001123 0.88720703 29.88842773 C0.35855774 36.3788408 -0.55953344 42.6486913 -2 49 C-3.32 49 -4.64 49 -6 49 C-6 48.01 -6 47.02 -6 46 C-6.99 46 -7.98 46 -9 46 C-7.49123966 38.4561983 -5.32700761 31.15521673 -3.12109375 23.79296875 C-1.51315778 18.35287877 -0.74306049 13.42040129 -0.4375 7.75 C-0.39431641 7.00492188 -0.35113281 6.25984375 -0.30664062 5.4921875 C-0.20103275 3.661651 -0.10005799 1.83084824 0 0 Z " fill="#162B51" transform="translate(264,52)"/>
<path d="M0 0 C5.39490726 1.13576995 10.68846811 2.45798044 16 3.9375 C24.24783515 6.1732076 32.5696553 7.63793696 41 9 C41.05389087 10.95803507 41.09274217 12.91648909 41.125 14.875 C41.14820313 15.96554688 41.17140625 17.05609375 41.1953125 18.1796875 C41 21 41 21 39 23 C38.01 19.37 37.02 15.74 36 12 C34.7625 11.855625 33.525 11.71125 32.25 11.5625 C29.42208343 11.2325764 26.75220772 10.72597605 24 10 C23.34 9.84660156 22.68 9.69320312 22 9.53515625 C18.43150803 8.69182123 15.19869339 7.86590448 12 6 C12 6.66 12 7.32 12 8 C11.01 8.33 10.02 8.66 9 9 C9 8.01 9 7.02 9 6 C7.02 6.99 5.04 7.98 3 9 C0.70620251 5.55930376 0 4.27709699 0 0 Z " fill="#255687" transform="translate(224,31)"/>
<path d="M0 0 C3.375 0.25 3.375 0.25 7 1 C8.1875 2.8125 8.1875 2.8125 9 5 C9.639375 5.61875 10.27875 6.2375 10.9375 6.875 C13.34492135 9.35537352 14.48771747 11.90968353 16 15 C16.86625 15.804375 16.86625 15.804375 17.75 16.625 C18.1625 17.07875 18.575 17.5325 19 18 C18.625 20 18.625 20 18 22 C18.33 22.99 18.66 23.98 19 25 C18.54451823 27.73812607 17.74685247 30.3201176 17 33 C17.66 33.33 18.32 33.66 19 34 C18.34 36.31 17.68 38.62 17 41 C14.03 41.495 14.03 41.495 11 42 C11.144375 40.9275 11.28875 39.855 11.4375 38.75 C11.52386719 38.01910156 11.61023438 37.28820312 11.69921875 36.53515625 C11.91115493 34.748837 12.14497948 32.96504746 12.39453125 31.18359375 C13.35650838 23.07550083 13.18576458 15.5382118 8.34375 8.640625 C6.63672233 6.65873694 4.88269903 4.81423725 3 3 C2 2 1 1 0 0 Z " fill="#1C386B" transform="translate(205,70)"/>
<path d="M0 0 C3.61363804 1.3446095 6.78520167 2.97384957 10.0625 5 C12.99172403 6.80537691 15.8974432 8.50962629 19 10 C19 10.66 19 11.32 19 12 C6.79 12.33 -5.42 12.66 -18 13 C-18.33 11.02 -18.66 9.04 -19 7 C-18.01 6.34 -17.02 5.68 -16 5 C-16 6.32 -16 7.64 -16 9 C-15.54625 8.54625 -15.0925 8.0925 -14.625 7.625 C-13.41666667 6.41666667 -12.20833333 5.20833333 -11 4 C-8.96166576 5.2739589 -6.96147874 6.61061923 -5 8 C-5 8.66 -5 9.32 -5 10 C-0.545 9.505 -0.545 9.505 4 9 C4.33 7.68 4.66 6.36 5 5 C4.34 5 3.68 5 3 5 C3 4.34 3 3.68 3 3 C2.34 3 1.68 3 1 3 C0.67 2.01 0.34 1.02 0 0 Z " fill="#0B0D21" transform="translate(172,195)"/>
<path d="M0 0 C0.66 0 1.32 0 2 0 C1.3609607 8.31114873 -0.05647731 16.43257406 -1.5625 24.625 C-1.79646484 25.91535156 -2.03042969 27.20570313 -2.27148438 28.53515625 C-2.84416437 31.69073987 -3.4215966 34.84546043 -4 38 C1.28 38 6.56 38 12 38 C12.33 38.66 12.66 39.32 13 40 C12.113125 39.938125 11.22625 39.87625 10.3125 39.8125 C6.96747339 39.72672383 6.96747339 39.72672383 4.5 41.625 C2 43 2 43 -1.25 42.375 C-4 41 -4 41 -5 38 C-5.66 38 -6.32 38 -7 38 C-7.02687279 36.18757948 -7.04633715 34.37504767 -7.0625 32.5625 C-7.07410156 31.55316406 -7.08570313 30.54382813 -7.09765625 29.50390625 C-7 27 -7 27 -6 26 C-5.36517033 22.26155861 -5 18.79819843 -5 15 C-4.319375 13.948125 -4.319375 13.948125 -3.625 12.875 C-1.32209108 8.80062268 -0.7560795 4.58095228 0 0 Z " fill="#1F2D55" transform="translate(61,133)"/>
<path d="M0 0 C0.66 0 1.32 0 2 0 C2 0.66 2 1.32 2 2 C2.66 2 3.32 2 4 2 C4.33 1.34 4.66 0.68 5 0 C5.66 0.33 6.32 0.66 7 1 C7 2.98 7 4.96 7 7 C5.63875 6.7215625 5.63875 6.7215625 4.25 6.4375 C-5.7856041 5.05327874 -13.94179524 6.96119683 -22.25 12.5 C-22.8275 12.995 -23.405 13.49 -24 14 C-25.051875 14.8971875 -25.051875 14.8971875 -26.125 15.8125 C-28.34170211 18.39865246 -29.11059545 20.73884999 -30 24 C-30.66 24 -31.32 24 -32 24 C-32.6875 22.25 -32.6875 22.25 -33 20 C-31.6875 17.75 -31.6875 17.75 -30 16 C-29.34 16 -28.68 16 -28 16 C-27.938125 15.236875 -27.87625 14.47375 -27.8125 13.6875 C-27 11 -27 11 -24.875 9.4375 C-23.92625 8.963125 -22.9775 8.48875 -22 8 C-16.84019548 5.31472407 -16.84019548 5.31472407 -13 1 C-12.319375 1.165 -11.63875 1.33 -10.9375 1.5 C-7.5835178 2.07089059 -4.39610195 2.06659023 -1 2 C-0.67 1.34 -0.34 0.68 0 0 Z " fill="#295B8F" transform="translate(81,72)"/>
<path d="M0 0 C0.495 1.485 0.495 1.485 1 3 C0.49138428 3.33733154 -0.01723145 3.67466309 -0.54125977 4.0222168 C-2.88251214 5.57605126 -5.22251133 7.13176318 -7.5625 8.6875 C-8.36236328 9.21794922 -9.16222656 9.74839844 -9.98632812 10.29492188 C-14.72246865 13.44590516 -19.39111564 16.66551856 -24 20 C-24.66 19.67 -25.32 19.34 -26 19 C-26.66 19 -27.32 19 -28 19 C-29.32 19 -30.64 19 -32 19 C-32 17.35 -32 15.7 -32 14 C-30.77925781 13.57589844 -29.55851563 13.15179688 -28.30078125 12.71484375 C-18.35930482 9.19531627 -9.091714 5.37015064 0 0 Z " fill="#6487A9" transform="translate(179,20)"/>
<path d="M0 0 C1.47118538 0.0001133 1.47118538 0.0001133 2.97209167 0.00022888 C4.028423 0.00539017 5.08475433 0.01055145 6.1730957 0.01586914 C7.79813774 0.01799156 7.79813774 0.01799156 9.45600891 0.02015686 C12.9203262 0.0257598 16.38457915 0.03831281 19.84887695 0.05102539 C22.19588123 0.05604001 24.54288652 0.06060298 26.88989258 0.06469727 C32.64709884 0.0748798 38.40416577 0.09445476 44.16137695 0.11352539 C44.16137695 10.01352539 44.16137695 19.91352539 44.16137695 30.11352539 C43.50137695 30.11352539 42.84137695 30.11352539 42.16137695 30.11352539 C42.13245746 25.82187277 42.11460577 21.53024503 42.09887695 17.23852539 C42.09049805 16.01520508 42.08211914 14.79188477 42.07348633 13.53149414 C42.07026367 12.36489258 42.06704102 11.19829102 42.0637207 9.99633789 C42.05848389 8.91755371 42.05324707 7.83876953 42.04785156 6.72729492 C42.16137695 4.11352539 42.16137695 4.11352539 43.16137695 2.11352539 C38.68140004 2.08848252 34.2014621 2.07050618 29.72143555 2.05859375 C28.20287362 2.05361854 26.68431635 2.04683598 25.16577148 2.03808594 C16.92063472 1.99182609 8.78512907 2.06578801 0.57055664 2.89697266 C-1.83862305 3.11352539 -1.83862305 3.11352539 -5.83862305 3.11352539 C-6.49862305 2.45352539 -7.15862305 1.79352539 -7.83862305 1.11352539 C-4.90944012 0.13713108 -3.04836566 -0.00783642 0 0 Z " fill="#255D95" transform="translate(62.838623046875,44.886474609375)"/>
<path d="M0 0 C1.36791206 2.600552 2.41487445 5.09208682 3.2265625 7.9140625 C7.73352926 23.12690908 13.05887975 37.64676356 22.29418945 50.67504883 C23.26608764 52.07049135 24.14249083 53.53148921 25 55 C24.67 55.99 24.34 56.98 24 58 C23.67 57.34 23.34 56.68 23 56 C21.02 56 19.04 56 17 56 C17 55.01 17 54.02 17 53 C16.34 52.67 15.68 52.34 15 52 C15.66 52 16.32 52 17 52 C16.7834375 51.38511719 16.566875 50.77023438 16.34375 50.13671875 C16.0653125 49.32847656 15.786875 48.52023438 15.5 47.6875 C15.2215625 46.88699219 14.943125 46.08648437 14.65625 45.26171875 C14 43 14 43 14 40 C13.01 39.67 12.02 39.34 11 39 C10.15625 36.92578125 10.15625 36.92578125 9.5 34.3125 C8.75330369 31.38349482 7.96416874 28.93049716 6.57421875 26.234375 C4.62806443 22.23582468 3.47474224 18.21778184 2.3125 13.9375 C2.08755859 13.14794922 1.86261719 12.35839844 1.63085938 11.54492188 C0.54626684 7.61203771 -0.30680194 4.12109634 0 0 Z " fill="#101B3F" transform="translate(113,104)"/>
<path d="M0 0 C0.33 0 0.66 0 1 0 C1.01981934 1.20124512 1.03963867 2.40249023 1.06005859 3.64013672 C1.1359962 8.08696854 1.22473132 12.53346805 1.31738281 16.97998047 C1.35572168 18.90634614 1.39056582 20.8327846 1.421875 22.75927734 C1.46741945 25.52467918 1.52543037 28.28957769 1.5859375 31.0546875 C1.59748871 31.9193161 1.60903992 32.7839447 1.62094116 33.67477417 C1.52662158 38.31782848 1.52662158 38.31782848 4 42 C4 42.33 4 42.66 4 43 C4.33 43.99 4.66 44.98 5 46 C6.33469171 51.00509391 7.35775169 55.86201355 8 61 C8.99 61.33 9.98 61.66 11 62 C11.66 62.66 12.32 63.32 13 64 C13.66 64.33 14.32 64.66 15 65 C15 66.65 15 68.3 15 70 C14.7525 69.38125 14.505 68.7625 14.25 68.125 C12.79371361 65.64931313 11.62187494 65.04874998 9 64 C9 63.34 9 62.68 9 62 C8.01 62 7.02 62 6 62 C5.18243762 59.93950145 4.37115266 57.87651147 3.5625 55.8125 C3.11003906 54.66394531 2.65757813 53.51539063 2.19140625 52.33203125 C-0.04005772 46.0912484 -0.13382636 40.45065812 -0.09765625 33.88671875 C-0.0962413 32.91716751 -0.09482635 31.94761627 -0.09336853 30.94868469 C-0.08778513 27.86159133 -0.07523564 24.77457133 -0.0625 21.6875 C-0.05748286 19.59049584 -0.05292032 17.49349054 -0.04882812 15.39648438 C-0.03782112 10.26429479 -0.02056788 5.13215982 0 0 Z " fill="#213258" transform="translate(16,121)"/>
<path d="M0 0 C1.03125 0.495 2.0625 0.99 3.125 1.5 C2.795 2.16 2.465 2.82 2.125 3.5 C1.10986328 3.01853516 1.10986328 3.01853516 0.07421875 2.52734375 C-6.36704643 0.28356528 -14.48471702 0.3367524 -20.9375 2.55078125 C-23.33909499 3.76230015 -25.59910979 5.06944044 -27.875 6.5 C-28.58269531 6.80164063 -29.29039062 7.10328125 -30.01953125 7.4140625 C-32.37879189 8.79485083 -32.85130609 9.99560598 -33.875 12.5 C-34.205 13.16515625 -34.535 13.8303125 -34.875 14.515625 C-38.34883552 22.27747625 -39.08533175 30.12536041 -39.875 38.5 C-40.205 38.5 -40.535 38.5 -40.875 38.5 C-40.90395225 35.20835171 -40.9217823 31.91673601 -40.9375 28.625 C-40.95006836 27.21927734 -40.95006836 27.21927734 -40.96289062 25.78515625 C-40.96611328 24.88925781 -40.96933594 23.99335937 -40.97265625 23.0703125 C-40.97789307 22.24289551 -40.98312988 21.41547852 -40.98852539 20.56298828 C-40.875 18.5 -40.875 18.5 -39.875 16.5 C-39.215 16.5 -38.555 16.5 -37.875 16.5 C-37.875 15.18 -37.875 13.86 -37.875 12.5 C-37.215 12.5 -36.555 12.5 -35.875 12.5 C-35.875 11.84 -35.875 11.18 -35.875 10.5 C-35.215 10.5 -34.555 10.5 -33.875 10.5 C-33.545 9.51 -33.215 8.52 -32.875 7.5 C-32.215 7.5 -31.555 7.5 -30.875 7.5 C-30.545 6.51 -30.215 5.52 -29.875 4.5 C-27.548289 3.05129315 -25.30385089 1.74208317 -22.875 0.5 C-22.27816406 0.13648437 -21.68132812 -0.22703125 -21.06640625 -0.6015625 C-14.8733458 -3.14060689 -6.17357479 -2.33445211 0 0 Z " fill="#213E64" transform="translate(200.875,66.5)"/>
<path d="M0 0 C0.99 0.33 1.98 0.66 3 1 C4.91242722 6.73728167 4.7428439 12.8828949 2.75 18.5625 C0.95973391 21.05608491 -0.06325733 22.14739729 -3 23 C-3.66 22.67 -4.32 22.34 -5 22 C-4.67 21.34 -4.34 20.68 -4 20 C-3.34 20 -2.68 20 -2 20 C-2.350625 19.484375 -2.70125 18.96875 -3.0625 18.4375 C-5.35682631 12.4722516 -2.06298883 5.72187469 0 0 Z " fill="#D9E2EB" transform="translate(94,93)"/>
<path d="M0 0 C1.32 0 2.64 0 4 0 C3.48588739 7.583161 2.0257679 14.98856541 -1 22 C-1.99 22.33 -2.98 22.66 -4 23 C-5.02281518 25.09719872 -5.02281518 25.09719872 -5.6875 27.5625 C-6.06455078 28.80193359 -6.06455078 28.80193359 -6.44921875 30.06640625 C-6.63097656 30.70449219 -6.81273437 31.34257812 -7 32 C-7.95792977 28.36147686 -8.49800802 24.72908331 -9 21 C-8.34 21 -7.68 21 -7 21 C-7 20.34 -7 19.68 -7 19 C-5.68 18.67 -4.36 18.34 -3 18 C-1.01401507 12.04204521 -0.42954941 6.25107435 0 0 Z " fill="#151D47" transform="translate(257,101)"/>
<path d="M0 0 C0.99 0.33 1.98 0.66 3 1 C0.25 4.875 0.25 4.875 -2 6 C-2.65772428 9.02934491 -2.65772428 9.02934491 -3 12 C-3.66 12 -4.32 12 -5 12 C-5.33 12.66 -5.66 13.32 -6 14 C-7 12 -7 12 -6.375 9.25 C-4.74827796 5.40502064 -2.7891632 3.08275933 0 0 Z M-9 13 C-8.34 13.33 -7.68 13.66 -7 14 C-7.99 17.3 -8.98 20.6 -10 24 C-9.34 24.33 -8.68 24.66 -8 25 C-8.61875 25.845625 -9.2375 26.69125 -9.875 27.5625 C-12.13047736 30.91372345 -13.06125645 34.08856854 -14 38 C-14.33 38 -14.66 38 -15 38 C-15.2226746 36.56465159 -15.42761906 35.12654475 -15.625 33.6875 C-15.74101562 32.88699219 -15.85703125 32.08648437 -15.9765625 31.26171875 C-16 29 -16 29 -14 26 C-13.34 26 -12.68 26 -12 26 C-12.061875 24.96875 -12.12375 23.9375 -12.1875 22.875 C-11.98864405 18.76531027 -11.05532197 16.51117504 -9 13 Z " fill="#2865A0" transform="translate(32,58)"/>
<path d="M0 0 C1.98 0.495 1.98 0.495 4 1 C4 15.85 4 30.7 4 46 C3.67 46 3.34 46 3 46 C3 47.98 3 49.96 3 52 C2.01 52 1.02 52 0 52 C0.33 49.36 0.66 46.72 1 44 C0.34 44 -0.32 44 -1 44 C-0.67475342 43.3505542 -0.34950684 42.7011084 -0.0144043 42.03198242 C1.28198557 38.15716514 1.26778485 34.52472188 1.23046875 30.48828125 C1.23001053 29.67884567 1.22955231 28.8694101 1.2290802 28.03544617 C1.22606916 26.33180263 1.21821736 24.62816157 1.20581055 22.92456055 C1.18748904 20.3109366 1.18530148 17.69766602 1.18554688 15.08398438 C1.18063363 13.42708026 1.17480616 11.77017854 1.16796875 10.11328125 C1.16685593 9.32995926 1.1657431 8.54663727 1.16459656 7.73957825 C1.21617345 3.7396304 1.21617345 3.7396304 0 0 Z " fill="#1C477A" transform="translate(105,43)"/>
<path d="M0 0 C0.33 0 0.66 0 1 0 C1.05534912 0.81154541 1.11069824 1.62309082 1.16772461 2.45922852 C1.42166393 6.16050649 1.67954595 9.86149975 1.9375 13.5625 C2.02451172 14.83931641 2.11152344 16.11613281 2.20117188 17.43164062 C2.28818359 18.67236328 2.37519531 19.91308594 2.46484375 21.19140625 C2.543396 22.32779541 2.62194824 23.46418457 2.70288086 24.63500977 C3.01010769 28.11447351 3.49591077 31.54428083 4 35 C4.06056151 36.64485066 4.08781955 38.29172957 4.0625 39.9375 C4.05347656 40.70964844 4.04445313 41.48179688 4.03515625 42.27734375 C4.02355469 42.84582031 4.01195313 43.41429687 4 44 C3.01 43.67 2.02 43.34 1 43 C-0.14236247 33.95105002 -0.1143406 24.97547064 -0.0625 15.875 C-0.0574735 14.33073062 -0.05291264 12.78645966 -0.04882812 11.2421875 C-0.03791697 7.49475813 -0.02071614 3.74738951 0 0 Z " fill="#566982" transform="translate(117,44)"/>
<path d="M0 0 C2.16818087 3.66705373 2.87343581 7.55053316 3.625 11.6875 C3.75616211 12.39849854 3.88732422 13.10949707 4.02246094 13.84204102 C4.92219776 18.96878817 5.36582521 23.78699078 5 29 C4 30 4 30 0.18359375 30.09765625 C-1.39846682 30.09098089 -2.98051159 30.07901875 -4.5625 30.0625 C-5.36880859 30.05798828 -6.17511719 30.05347656 -7.00585938 30.04882812 C-9.00393756 30.03700518 -11.00197783 30.01906914 -13 30 C-13 29.01 -13 28.02 -13 27 C-12.443125 27.08378906 -11.88625 27.16757813 -11.3125 27.25390625 C-5.94208892 27.97056584 -1.34616568 27.87482711 4 27 C3.68160156 26.29230469 3.36320312 25.58460938 3.03515625 24.85546875 C1.96220653 21.89574706 1.63827521 19.44373888 1.4375 16.3125 C1.2525248 12.51219962 1.2525248 12.51219962 0 9 C-0.06950541 7.45976004 -0.08452357 5.91665012 -0.0625 4.375 C-0.05347656 3.55773437 -0.04445313 2.74046875 -0.03515625 1.8984375 C-0.02355469 1.27195313 -0.01195313 0.64546875 0 0 Z " fill="#B5BCCF" transform="translate(89,142)"/>
<path d="M0 0 C0.66 0.33 1.32 0.66 2 1 C0.50260417 2.20442708 -0.99479167 3.40885417 -2.4921875 4.61328125 C-4.25292107 6.12270545 -4.25292107 6.12270545 -6 9 C-6.66 9 -7.32 9 -8 9 C-8.18175781 9.63808594 -8.36351562 10.27617188 -8.55078125 10.93359375 C-8.80214844 11.75988281 -9.05351562 12.58617188 -9.3125 13.4375 C-9.55613281 14.26121094 -9.79976562 15.08492187 -10.05078125 15.93359375 C-10.36402344 16.61550781 -10.67726563 17.29742187 -11 18 C-11.99 18.33 -12.98 18.66 -14 19 C-15.81177431 23.2274734 -16.45438289 27.45319073 -17 32 C-17.66 32 -18.32 32 -19 32 C-19.33 32.66 -19.66 33.32 -20 34 C-19.57472417 21.241725 -13.03024764 11.6526191 -4 3 C-2.68696815 1.97348885 -1.36016175 0.96319146 0 0 Z " fill="#31597B" transform="translate(37,52)"/>
<path d="M0 0 C1.60080151 4.00200378 0.29279692 7.04556236 -1 11 C-1.78375 11.103125 -2.5675 11.20625 -3.375 11.3125 C-6.33045181 11.77595022 -6.33045181 11.77595022 -8 15 C-6.04783565 16.95216435 -4.46800047 17.84826645 -2 19 C-6.05606165 18.53199289 -9.46588679 18.12046792 -13 16 C-13 15.01 -13 14.02 -13 13 C-12.34 13 -11.68 13 -11 13 C-10.67 12.01 -10.34 11.02 -10 10 C-5.54285714 6 -5.54285714 6 -3 6 C-2.690625 5.195625 -2.38125 4.39125 -2.0625 3.5625 C-1 1 -1 1 0 0 Z " fill="#162153" transform="translate(215,109)"/>
<path d="M0 0 C0.33 0 0.66 0 1 0 C1.04487549 0.82387207 1.08975098 1.64774414 1.13598633 2.49658203 C1.3524368 6.37328272 1.57850432 10.24932501 1.8125 14.125 C1.85468658 14.82451782 1.89687317 15.52403564 1.94033813 16.24475098 C2.56662966 26.40002647 3.52342672 36.42829936 5.12231445 46.48486328 C5.25081787 47.30970215 5.37932129 48.13454102 5.51171875 48.984375 C5.62990967 49.69303711 5.74810059 50.40169922 5.86987305 51.13183594 C6 53 6 53 5 56 C2.79430788 48.72743784 1.39084527 41.76116402 0.8125 34.1875 C0.73209473 33.21353271 0.65168945 32.23956543 0.56884766 31.23608398 C-0.2149536 20.82857376 -0.20006303 10.42943961 0 0 Z " fill="#213C59" transform="translate(108,56)"/>
<path d="M0 0 C5.39795989 1.15058556 10.70987333 2.42421759 16 4 C15.67 4.99 15.34 5.98 15 7 C14.01 6.67 13.02 6.34 12 6 C12 6.66 12 7.32 12 8 C11.01 8.33 10.02 8.66 9 9 C9 8.01 9 7.02 9 6 C7.02 6.99 5.04 7.98 3 9 C0.70620251 5.55930376 0 4.27709699 0 0 Z " fill="#255C91" transform="translate(224,31)"/>
<path d="M0 0 C5.37109375 2.734375 5.37109375 2.734375 7 4 C7.33 5.32 7.66 6.64 8 8 C3.38 8.33 -1.24 8.66 -6 9 C-6.33 7.02 -6.66 5.04 -7 3 C-6.01 2.34 -5.02 1.68 -4 1 C-4 2.32 -4 3.64 -4 5 C-2.29159719 3.36587557 -1.06546953 2.13093906 0 0 Z " fill="#131643" transform="translate(160,199)"/>
<path d="M0 0 C3.10917296 1.42684596 6.21136053 2.86828703 9.3125 4.3125 C10.19357422 4.71662109 11.07464844 5.12074219 11.98242188 5.53710938 C12.82998047 5.93349609 13.67753906 6.32988281 14.55078125 6.73828125 C15.33106689 7.09962158 16.11135254 7.46096191 16.9152832 7.83325195 C19.00227748 9.00127463 20.40816358 10.23005601 22 12 C19.39417629 12.93065133 18.35801776 13.14917407 15.75 12.0625 C15.1725 11.711875 14.595 11.36125 14 11 C13.67 11.66 13.34 12.32 13 13 C12.01 12.34 11.02 11.68 10 11 C9.01 11 8.02 11 7 11 C7 9.02 7 7.04 7 5 C6.401875 4.87625 5.80375 4.7525 5.1875 4.625 C3 4 3 4 0 2 C0 1.34 0 0.68 0 0 Z " fill="#285F92" transform="translate(201,19)"/>
<path d="M0 0 C-0.74765625 0.47050781 -1.4953125 0.94101562 -2.265625 1.42578125 C-3.74289063 2.35970703 -3.74289063 2.35970703 -5.25 3.3125 C-6.22453125 3.92738281 -7.1990625 4.54226562 -8.203125 5.17578125 C-10.54733713 6.70475759 -12.78784032 8.28820977 -15 10 C-15.66 9.67 -16.32 9.34 -17 9 C-17.66 9 -18.32 9 -19 9 C-20.32 9 -21.64 9 -23 9 C-23 8.34 -23 7.68 -23 7 C-20.18301203 4.86591821 -18.21092859 4.02785849 -14.6875 3.5625 C-10.73624274 2.95976584 -8.20774861 1.72049419 -4.796875 -0.2578125 C-3 -1 -3 -1 0 0 Z " fill="#5D90C1" transform="translate(170,30)"/>
<path d="M0 0 C3.60179955 3.55612455 7.08450572 7.20150415 10.5 10.9375 C10.96019531 11.43701172 11.42039063 11.93652344 11.89453125 12.45117188 C15.03861211 15.88309112 18.04302091 19.40555622 21 23 C18.69 22.34 16.38 21.68 14 21 C13.95875 20.401875 13.9175 19.80375 13.875 19.1875 C13.16158026 16.67400876 13.16158026 16.67400876 10.125 15.6875 C6.04475199 13.48416607 5.61578637 11.23182145 4 7 C3.01 6.34 2.02 5.68 1 5 C0.34 5.66 -0.32 6.32 -1 7 C-1.625 5.1875 -1.625 5.1875 -2 3 C-1.34 2.01 -0.68 1.02 0 0 Z " fill="#111537" transform="translate(138,161)"/>
<path d="M0 0 C0.33 0 0.66 0 1 0 C1.39887238 6.64787304 0.15337946 12.54973881 -1.34375 19.0234375 C-2.07176727 21.81750808 -2.07176727 21.81750808 -2 24 C-2.66 24 -3.32 24 -4 24 C-4.144375 24.61875 -4.28875 25.2375 -4.4375 25.875 C-5 28 -5 28 -6 30 C-6.66 30 -7.32 30 -8 30 C-6.49123966 22.4561983 -4.32700761 15.15521673 -2.12109375 7.79296875 C-1.35368017 5.19659736 -0.64057418 2.62668152 0 0 Z " fill="#153063" transform="translate(263,68)"/>
<path d="M0 0 C0.33 0 0.66 0 1 0 C1.15855469 0.85722656 1.31710938 1.71445313 1.48046875 2.59765625 C3.16197634 10.83797245 4.59225326 16.96355225 11.8125 21.9375 C12.8953125 22.4634375 12.8953125 22.4634375 14 23 C13.67 26.63 13.34 30.26 13 34 C12.67 34 12.34 34 12 34 C12.0928125 33.40832031 12.185625 32.81664062 12.28125 32.20703125 C12.51769582 29.61879392 12.57080299 27.54266786 12 25 C10.3715508 23.55033363 10.3715508 23.55033363 8.25 22.5625 C3.629227 20.1701849 2.27218965 17.5647198 0.609375 12.71484375 C-0.34863631 8.44678053 -0.33274158 4.34412616 0 0 Z " fill="#1E3C62" transform="translate(51,98)"/>
<path d="M0 0 C0.66 0 1.32 0 2 0 C1.4534915 5.43092826 -0.5095156 9.49543888 -3 14.25 C-3.36867187 14.96929687 -3.73734375 15.68859375 -4.1171875 16.4296875 C-5.07162998 18.28980533 -6.03519102 20.1452379 -7 22 C-7.33 22.66 -7.66 23.32 -8 24 C-8.66 23.67 -9.32 23.34 -10 23 C-8.52126499 14.3740458 -8.52126499 14.3740458 -5.0625 11.25 C-2.06206036 7.97679312 -1.18901223 4.2155888 0 0 Z " fill="#0D0F2F" transform="translate(253,123)"/>
<path d="M0 0 C0.66 0 1.32 0 2 0 C1.55876493 5.35287812 0.98053098 10.68739421 0.1875 16 C0.05730469 16.9075 -0.07289062 17.815 -0.20703125 18.75 C-1 21 -1 21 -3.07421875 22.3125 C-4.02748047 22.6528125 -4.02748047 22.6528125 -5 23 C-4.814375 21.88625 -4.62875 20.7725 -4.4375 19.625 C-3.68319343 16.17431139 -3.68319343 16.17431139 -5 14 C-4.52949219 13.44828125 -4.05898438 12.8965625 -3.57421875 12.328125 C-1.8197887 9.73348403 -1.33741363 7.81872585 -0.8125 4.75 C-0.65394531 3.85796875 -0.49539062 2.9659375 -0.33203125 2.046875 C-0.22246094 1.37140625 -0.11289062 0.6959375 0 0 Z " fill="#22395E" transform="translate(61,133)"/>
<path d="M0 0 C1.98 0 3.96 0 6 0 C6.12375 0.845625 6.2475 1.69125 6.375 2.5625 C6.91096048 5.98992638 6.91096048 5.98992638 8.0625 9.125 C9.34863648 14.44103079 9.16084637 19.55803132 9 25 C8.67 25 8.34 25 8 25 C7.89042969 24.21496094 7.78085938 23.42992188 7.66796875 22.62109375 C6.45588198 14.58978713 5.05444274 8.49856924 0 2 C0 1.34 0 0.68 0 0 Z " fill="#445E8B" transform="translate(90,81)"/>
<path d="M0 0 C2.7710688 2.34591852 3.52059284 4.14776201 4.1875 7.6875 C4.34605469 8.49574219 4.50460938 9.30398437 4.66796875 10.13671875 C4.77753906 10.75160156 4.88710937 11.36648437 5 12 C5.66 11.67 6.32 11.34 7 11 C7.66 15.29 8.32 19.58 9 24 C8.34 24 7.68 24 7 24 C0 6.23282443 0 6.23282443 0 0 Z " fill="#454D6D" transform="translate(122,103)"/>
<path d="M0 0 C0 0.66 0 1.32 0 2 C-0.7425 2.2475 -1.485 2.495 -2.25 2.75 C-5.21407146 4.09730521 -6.87499284 5.56017696 -9 8 C-9 8.33 -9 8.66 -9 9 C-10.65 9 -12.3 9 -14 9 C-6.375 -0.53125 -6.375 -0.53125 0 0 Z M-16 9 C-15.34 9 -14.68 9 -14 9 C-18.46875 18.28125 -18.46875 18.28125 -23 20 C-21.51131293 15.39860359 -19.25370145 12.49772906 -16 9 Z " fill="#255E97" transform="translate(161,38)"/>
<path d="M0 0 C0.66 0 1.32 0 2 0 C2.06058594 0.58007812 2.12117188 1.16015625 2.18359375 1.7578125 C2.75438521 7.07934518 3.35460204 12.35386835 4.625 17.5625 C5.04702148 20.30563964 4.68687622 22.3288147 4 25 C-0.86171326 17.7074301 -0.26160937 8.45870296 0 0 Z " fill="#223664" transform="translate(91,140)"/>
<path d="M0 0 C2.83031246 2.83031246 3.42196163 6.14641084 4 10 C3.5625 12.8125 3.5625 12.8125 3 15 C3.33 15.99 3.66 16.98 4 18 C3.00390625 19.82421875 3.00390625 19.82421875 1.5625 21.6875 C1.08941406 22.31011719 0.61632812 22.93273437 0.12890625 23.57421875 C-0.42990234 24.27998047 -0.42990234 24.27998047 -1 25 C-1.66 24.34 -2.32 23.68 -3 23 C-2.50886719 22.01902344 -2.01773438 21.03804687 -1.51171875 20.02734375 C0.29578943 15.80982466 0.34911529 12.09187203 0.1875 7.5625 C0.17396484 6.83095703 0.16042969 6.09941406 0.14648438 5.34570312 C0.11153874 3.56347578 0.05774805 1.78163427 0 0 Z " fill="#22487D" transform="translate(98,90)"/>
<path d="M0 0 C1.875 0.3125 1.875 0.3125 4 1 C6.13586678 4.20380017 6.23132175 5.01939967 6.125 8.6875 C6.10695313 9.49574219 6.08890625 10.30398437 6.0703125 11.13671875 C6.03550781 12.05904297 6.03550781 12.05904297 6 13 C4.35 13.33 2.7 13.66 1 14 C0.375 12.125 0.375 12.125 0 10 C0.66 9.34 1.32 8.68 2 8 C1.67 7.236875 1.34 6.47375 1 5.6875 C0 3 0 3 0 0 Z " fill="#214675" transform="translate(58,120)"/>
<path d="M0 0 C0.99 0.33 1.98 0.66 3 1 C4.51120527 6.8559204 4.98279805 14.21683901 3 20 C0.9375 22.3125 0.9375 22.3125 -1 24 C-0.84402344 23.35675781 -0.68804687 22.71351562 -0.52734375 22.05078125 C1.10522236 14.47178227 0.90289671 7.67462204 0 0 Z " fill="#192B54" transform="translate(217,85)"/>
<path d="M0 0 C3.10190545 4.65285818 4.33846504 9.41532676 4 15 C3.01 15.33 2.02 15.66 1 16 C-0.20882096 18.00016466 -0.20882096 18.00016466 -1 20 C-1.33 17.69 -1.66 15.38 -2 13 C-1.01 12.34 -0.02 11.68 1 11 C0.67 10.401875 0.34 9.80375 0 9.1875 C-1.51559097 5.87214475 -0.93420912 3.38650808 0 0 Z " fill="#163263" transform="translate(114,113)"/>
<path d="M0 0 C6.6 0.33 13.2 0.66 20 1 C20 1.33 20 1.66 20 2 C19.15695313 2.04898438 18.31390625 2.09796875 17.4453125 2.1484375 C16.34960938 2.22320312 15.25390625 2.29796875 14.125 2.375 C12.48917969 2.47941406 12.48917969 2.47941406 10.8203125 2.5859375 C7.86953526 2.73253491 7.86953526 2.73253491 6 5 C3.6875 4.9765625 3.6875 4.9765625 1 4.625 C0.113125 4.51414063 -0.77375 4.40328125 -1.6875 4.2890625 C-2.450625 4.19367188 -3.21375 4.09828125 -4 4 C-4.66 4 -5.32 4 -6 4 C-5.67 3.01 -5.34 2.02 -5 1 C-3.35 1 -1.7 1 0 1 C0 0.67 0 0.34 0 0 Z " fill="#303D66" transform="translate(73,171)"/>
<path d="M0 0 C0.33 0.66 0.66 1.32 1 2 C0.05439935 4.0262871 -0.95377125 6.02379014 -2 8 C-4.39995448 12.79990897 -4.61074547 17.7245768 -5 23 C-5.99 22.67 -6.98 22.34 -8 22 C-7.13139923 14.00887296 -5.7609686 5.95962269 0 0 Z " fill="#264D77" transform="translate(56,85)"/>
<path d="M0 0 C0.33 1.32 0.66 2.64 1 4 C0.01 4.556875 -0.98 5.11375 -2 5.6875 C-4.63222006 7.80069075 -4.975891 8.80476441 -5.3984375 12.2265625 C-5.377029 15.5020627 -5.25813752 18.73503835 -5 22 C-5.33 22 -5.66 22 -6 22 C-8.74144487 10.98526616 -8.74144487 10.98526616 -8 7 C-5.125 4.8125 -5.125 4.8125 -2 3 C-1.34 2.01 -0.68 1.02 0 0 Z " fill="#3B5379" transform="translate(94,114)"/>
<path d="M0 0 C0.66 0.33 1.32 0.66 2 1 C1.67 1.99 1.34 2.98 1 4 C0.34 4 -0.32 4 -1 4 C-0.67 7.96 -0.34 11.92 0 16 C-2.84209179 13.15790821 -3.79663507 10.38966038 -4.375 6.4375 C-3.87759946 3.20439646 -2.44936872 2.06665485 0 0 Z M-7 9 C-4 10 -4 10 -4 10 Z " fill="#E0E7F1" transform="translate(87,117)"/>
<path d="M0 0 C0.33 0 0.66 0 1 0 C1.12117187 0.66386719 1.24234375 1.32773438 1.3671875 2.01171875 C2.23392939 6.5787818 3.22657715 10.69311595 5 15 C5 16.32 5 17.64 5 19 C3 19 3 19 1.375 17.6875 C-1.77323481 13.82375728 0 4.9206196 0 0 Z " fill="#17264D" transform="translate(161,94)"/>
<path d="M0 0 C1.32 0.99 2.64 1.98 4 3 C3.38125 3.845625 2.7625 4.69125 2.125 5.5625 C-0.13047736 8.91372345 -1.06125645 12.08856854 -2 16 C-2.33 16 -2.66 16 -3 16 C-3.2226746 14.56465159 -3.42761906 13.12654475 -3.625 11.6875 C-3.74101562 10.88699219 -3.85703125 10.08648437 -3.9765625 9.26171875 C-4 7 -4 7 -2 4 C-1.34 4 -0.68 4 0 4 C0 2.68 0 1.36 0 0 Z " fill="#23609D" transform="translate(20,80)"/>
<path d="M0 0 C3.3 0.33 6.6 0.66 10 1 C10.05389087 2.95803507 10.09274217 4.91648909 10.125 6.875 C10.14820313 7.96554688 10.17140625 9.05609375 10.1953125 10.1796875 C10 13 10 13 8 15 C7.67 11.04 7.34 7.08 7 3 C4.69 2.67 2.38 2.34 0 2 C0 1.34 0 0.68 0 0 Z " fill="#2C5176" transform="translate(255,39)"/>
<path d="M0 0 C-0.33 0.66 -0.66 1.32 -1 2 C-2.22783203 2.35191406 -2.22783203 2.35191406 -3.48046875 2.7109375 C-4.31191406 3.13632812 -5.14335938 3.56171875 -6 4 C-7.04417909 7.08765687 -7.04417909 7.08765687 -7.3125 10.625 C-7.45300781 11.81351563 -7.59351562 13.00203125 -7.73828125 14.2265625 C-7.82464844 15.14179687 -7.91101563 16.05703125 -8 17 C-8.33 17 -8.66 17 -9 17 C-9.33 12.05 -9.66 7.1 -10 2 C-5.7900275 0.316011 -4.21047434 -0.24059853 0 0 Z " fill="#5B759F" transform="translate(127,39)"/>
<path d="M0 0 C3.50278604 2.02731729 6.23428468 4.02941688 9 7 C8.278125 6.690625 7.55625 6.38125 6.8125 6.0625 C3.00132438 4.58089248 3.00132438 4.58089248 -1 4 C-4.18288354 5.87178116 -4.18288354 5.87178116 -7 8 C-7.66 8 -8.32 8 -9 8 C-9 8.66 -9 9.32 -9 10 C-9.66 10 -10.32 10 -11 10 C-9.73459948 6.20379845 -8.21781569 5.51321812 -4.9375 3.3125 C-4.01839844 2.68988281 -3.09929687 2.06726563 -2.15234375 1.42578125 C-1.44207031 0.95527344 -0.73179687 0.48476562 0 0 Z " fill="#376084" transform="translate(191,12)"/>
<path d="M0 0 C0.66 0 1.32 0 2 0 C7 5.47619048 7 5.47619048 7 8 C7.99 8.33 8.98 8.66 10 9 C10 9.66 10 10.32 10 11 C11.32 11.66 12.64 12.32 14 13 C14 13.66 14 14.32 14 15 C7.96939766 12.54308794 3.90362836 7.01895074 0 2 C0 1.34 0 0.68 0 0 Z " fill="#182345" transform="translate(23,183)"/>
<path d="M0 0 C0.12375 0.639375 0.2475 1.27875 0.375 1.9375 C0.58125 2.618125 0.7875 3.29875 1 4 C1.66 4.33 2.32 4.66 3 5 C3.33 5.99 3.66 6.98 4 8 C4.66 8 5.32 8 6 8 C6 10.97 6 13.94 6 17 C5.01 16.01 4.02 15.02 3 14 C3 12.68 3 11.36 3 10 C2.34 10 1.68 10 1 10 C-0.60725635 6.78548731 -0.05748185 3.56387464 0 0 Z " fill="#50618F" transform="translate(121,89)"/>
<path d="M0 0 C0.33 0 0.66 0 1 0 C1 3.3 1 6.6 1 10 C-2.80859375 9.56054688 -2.80859375 9.56054688 -6.6171875 9.12109375 C-9.01653057 8.80325148 -9.01653057 8.80325148 -11 10 C-11 9.34 -11 8.68 -11 8 C-12.65 8 -14.3 8 -16 8 C-16 7.67 -16 7.34 -16 7 C-11.38 7 -6.76 7 -2 7 C-1.34 4.69 -0.68 2.38 0 0 Z " fill="#162654" transform="translate(95,166)"/>
<path d="M0 0 C1.32 0.33 2.64 0.66 4 1 C4.12152487 8.73708326 3.84800767 16.307359 3 24 C2.67 24 2.34 24 2 24 C1.97494385 23.34402832 1.9498877 22.68805664 1.92407227 22.01220703 C1.8082674 19.04959817 1.68547114 16.08731969 1.5625 13.125 C1.52318359 12.09246094 1.48386719 11.05992188 1.44335938 9.99609375 C1.40146484 9.00996094 1.35957031 8.02382813 1.31640625 7.0078125 C1.27974854 6.09660645 1.24309082 5.18540039 1.20532227 4.24658203 C1.13422935 1.96516519 1.13422935 1.96516519 0 0 Z " fill="#284E72" transform="translate(105,43)"/>
<path d="M0 0 C6.5404266 0.51297464 9.46925843 2.46925843 14 7 C9.0569398 6.50569398 5.25023806 5.63109975 1 3 C0.67 2.01 0.34 1.02 0 0 Z " fill="#131643" transform="translate(215,129)"/>
<path d="M0 0 C1.1577506 3.47325181 1.06866652 6.36067448 1 10 C1.66 10 2.32 10 3 10 C3.33 12.31 3.66 14.62 4 17 C1.38774841 14.51836099 -0.96504977 11.97974855 -3 9 C-2.75 6.9375 -2.75 6.9375 -2 5 C-2 3.68 -2 2.36 -2 1 C-1.34 0.67 -0.68 0.34 0 0 Z " fill="#1C2352" transform="translate(132,119)"/>
<path d="M0 0 C0.66 0 1.32 0 2 0 C2 1.65 2 3.3 2 5 C2.66 5 3.32 5 4 5 C3.67 6.98 3.34 8.96 3 11 C1.02 11.33 -0.96 11.66 -3 12 C-2.5276449 9.79567618 -1.99986136 7.99973904 -0.9375 6 C0.28295592 3.76449815 0.28295592 3.76449815 0 0 Z " fill="#1B3062" transform="translate(219,100)"/>
<path d="M0 0 C4.88049925 3.9419417 9.0580583 8.11950075 13 13 C10.69 12.34 8.38 11.68 6 11 C5.896875 10.38125 5.79375 9.7625 5.6875 9.125 C5.12474627 6.63473516 5.12474627 6.63473516 2 5 C2 4.34 2 3.68 2 3 C1.34 3 0.68 3 0 3 C0 2.01 0 1.02 0 0 Z " fill="#090C27" transform="translate(146,171)"/>
<path d="M0 0 C5 7.5 5 7.5 5 11 C3.35 10.67 1.7 10.34 0 10 C0 8.35 0 6.7 0 5 C-0.66 5 -1.32 5 -2 5 C-1.34 3.35 -0.68 1.7 0 0 Z " fill="#214C85" transform="translate(51,108)"/>
<path d="M0 0 C0.5534764 2.07553648 1 3.84365964 1 6 C-1.1171875 7.54296875 -1.1171875 7.54296875 -3.875 9.1875 C-4.77992188 9.73792969 -5.68484375 10.28835937 -6.6171875 10.85546875 C-7.40351563 11.23316406 -8.18984375 11.61085938 -9 12 C-9.66 11.67 -10.32 11.34 -11 11 C-5.25 6 -5.25 6 -3 6 C-2.690625 5.195625 -2.38125 4.39125 -2.0625 3.5625 C-1 1 -1 1 0 0 Z " fill="#121B39" transform="translate(215,109)"/>
<path d="M0 0 C3.11198065 1.49836105 6.0534615 3.19933758 9 5 C8.67 8.63 8.34 12.26 8 16 C7.67 16 7.34 16 7 16 C7.0928125 15.40832031 7.185625 14.81664062 7.28125 14.20703125 C7.51895462 11.60501463 7.58121712 9.55564588 7 7 C4.61663407 4.71071431 2.00611679 3.33530634 -1 2 C-0.67 1.34 -0.34 0.68 0 0 Z " fill="#2A415D" transform="translate(56,116)"/>
<path d="M0 0 C0.66 0 1.32 0 2 0 C2 0.66 2 1.32 2 2 C2.66 2 3.32 2 4 2 C4.33 1.34 4.66 0.68 5 0 C5.66 0.33 6.32 0.66 7 1 C7 2.98 7 4.96 7 7 C5.35 6.67 3.7 6.34 2 6 C2 5.34 2 4.68 2 4 C1.01 3.67 0.02 3.34 -1 3 C-0.67 2.01 -0.34 1.02 0 0 Z " fill="#235D97" transform="translate(81,72)"/>
<path d="M0 0 C3.48539917 0.64544429 6.02819057 2.10134397 9 4 C8.67 4.66 8.34 5.32 8 6 C7.01 6 6.02 6 5 6 C4.67 5.34 4.34 4.68 4 4 C3.01 4.66 2.02 5.32 1 6 C0.67 4.02 0.34 2.04 0 0 Z " fill="#236BB0" transform="translate(191,17)"/>
<path d="M0 0 C-0.33 0.99 -0.66 1.98 -1 3 C-4.63 2.67 -8.26 2.34 -12 2 C-11.67 1.34 -11.34 0.68 -11 0 C-7.01133873 -0.99716532 -3.9676931 -1.0502717 0 0 Z " fill="#1A1E30" transform="translate(198,124)"/>
<path d="M0 0 C4.13937592 3.30015998 7.58662205 6.17324411 10 11 C7.33333333 9.66666667 4.66666667 8.33333333 2 7 C2 6.34 2 5.68 2 5 C1.34 4.67 0.68 4.34 0 4 C0 2.68 0 1.36 0 0 Z " fill="#111D41" transform="translate(166,111)"/>
<path d="M0 0 C0.99 0.33 1.98 0.66 3 1 C4.01173798 4.03521394 4.16573514 6.19733079 4.1875 9.375 C4.20167969 10.31085938 4.21585937 11.24671875 4.23046875 12.2109375 C3.98668108 15.16118154 3.23112508 17.32364112 2 20 C1.06576355 16.98968256 0.95550089 16.13349732 2 13 C2.23967948 8.04662417 2.25929298 4.51858597 0 0 Z " fill="#92A7BE" transform="translate(94,93)"/>
<path d="M0 0 C3.375 0.25 3.375 0.25 7 1 C8.5 2.875 8.5 2.875 9 5 C8.67 5.99 8.34 6.98 8 8 C6.66372225 6.85760183 5.33104612 5.71098945 4 4.5625 C3.2575 3.92441406 2.515 3.28632812 1.75 2.62890625 C1.1725 2.09136719 0.595 1.55382812 0 1 C0 0.67 0 0.34 0 0 Z " fill="#213E63" transform="translate(205,70)"/>
<path d="M0 0 C0 0.33 0 0.66 0 1 C-1.91648462 1.16874707 -3.83319633 1.33491643 -5.75 1.5 C-7.35101563 1.63921875 -7.35101563 1.63921875 -8.984375 1.78125 C-11.3179218 1.95052283 -13.66032182 2 -16 2 C-16.66 1.34 -17.32 0.68 -18 0 C-12.11981331 -1.96006223 -6.00309571 -1.00051595 0 0 Z " fill="#2A68A4" transform="translate(73,46)"/>
<path d="M0 0 C4.69159716 3.38772897 9.0299782 6.78185183 13 11 C8.13786718 10.25197957 4.33232891 7.50997276 1.125 3.875 C0 2 0 2 0 0 Z " fill="#0D1327" transform="translate(159,184)"/>
<path d="M0 0 C-0.5775 0.28746094 -1.155 0.57492188 -1.75 0.87109375 C-3.17092503 1.58402315 -4.58815251 2.30441488 -6 3.03515625 C-6.99 3.54369141 -6.99 3.54369141 -8 4.0625 C-8.66 4.40410156 -9.32 4.74570313 -10 5.09765625 C-11.98689737 5.99408846 -13.87384292 6.53964902 -16 7 C-15.34 6.67 -14.68 6.34 -14 6 C-13.6596875 5.0409375 -13.6596875 5.0409375 -13.3125 4.0625 C-12 2 -12 2 -8.6875 0.75 C-5.6304486 0.12822683 -3.09340906 -0.18747934 0 0 Z " fill="#2E5576" transform="translate(73,77)"/>
<path d="M0 0 C0.33 0 0.66 0 1 0 C0.67 3.96 0.34 7.92 0 12 C-0.66 12 -1.32 12 -2 12 C-2.33 12.66 -2.66 13.32 -3 14 C-2.58846263 9.02906176 -2.20399168 4.55491614 0 0 Z " fill="#335476" transform="translate(20,72)"/>
<path d="M0 0 C3 3.75 3 3.75 3 6 C5.31 6.66 7.62 7.32 10 8 C10 8.66 10 9.32 10 10 C2.34782609 7.56521739 2.34782609 7.56521739 0 6 C-0.8125 4 -0.8125 4 -1 2 C-0.67 1.34 -0.34 0.68 0 0 Z " fill="#182359" transform="translate(37,192)"/>
<path d="M0 0 C0.33 0 0.66 0 1 0 C1.10807131 1.93627769 1.1856225 3.87427756 1.25 5.8125 C1.29640625 6.89144531 1.3428125 7.97039062 1.390625 9.08203125 C1.26171875 10.04496094 1.1328125 11.00789063 1 12 C-0.32 12.99 -1.64 13.98 -3 15 C-2.01 10.05 -1.02 5.1 0 0 Z " fill="#152544" transform="translate(219,94)"/>
<path d="M0 0 C0.66 0.33 1.32 0.66 2 1 C2 3.64 2 6.28 2 9 C0.68 9.33 -0.64 9.66 -2 10 C-1.34 6.7 -0.68 3.4 0 0 Z " fill="#E0E8F0" transform="translate(93,94)"/>
<path d="M0 0 C1.18771723 3.42943519 0.80226223 5.37784675 -0.4375 8.75 C-0.86869141 9.94882813 -0.86869141 9.94882813 -1.30859375 11.171875 C-1.65083984 12.07679687 -1.65083984 12.07679687 -2 13 C-2.33 13 -2.66 13 -3 13 C-3.31563182 7.73946963 -2.66590937 4.55426184 0 0 Z " fill="#0F1431" transform="translate(258,110)"/>
<path d="M0 0 C1.98 0 3.96 0 6 0 C6 1.98 6 3.96 6 6 C3.5625 5.25 3.5625 5.25 1 4 C0.1875 1.875 0.1875 1.875 0 0 Z " fill="#215685" transform="translate(90,81)"/>
<path d="M0 0 C0.66 0 1.32 0 2 0 C0.80100302 3.0831351 -0.47700477 6.06279492 -2 9 C-2.66 8.67 -3.32 8.34 -4 8 C-3.67 6.35 -3.34 4.7 -3 3 C-2.01 2.67 -1.02 2.34 0 2 C0 1.34 0 0.68 0 0 Z " fill="#070822" transform="translate(247,138)"/>
<path d="M0 0 C3.14624993 -0.26218749 4.61837017 -0.24754367 7.3125 1.5 C8.1478125 2.2425 8.1478125 2.2425 9 3 C8.67 3.99 8.34 4.98 8 6 C7.4225 5.525625 6.845 5.05125 6.25 4.5625 C4.07417916 3.0515133 2.57397552 2.45963849 0 2 C0 1.34 0 0.68 0 0 Z " fill="#2B4C6F" transform="translate(81,77)"/>
<path d="M0 0 C0.33 1.32 0.66 2.64 1 4 C0.01 4.33 -0.98 4.66 -2 5 C-3.20882096 7.00016466 -3.20882096 7.00016466 -4 9 C-4.25 6.75 -4.25 6.75 -4 4 C-2 1.6875 -2 1.6875 0 0 Z " fill="#336089" transform="translate(25,66)"/>
<path d="M0 0 C7.56634615 -0.37211538 7.56634615 -0.37211538 9.76171875 1.51171875 C10.17035156 2.00285156 10.57898437 2.49398437 11 3 C9.54077307 2.88590407 8.08259402 2.75834456 6.625 2.625 C5.40683594 2.52058594 5.40683594 2.52058594 4.1640625 2.4140625 C2 2 2 2 0 0 Z " fill="#1A1D41" transform="translate(49,204)"/>
<path d="M0 0 C0.33 0 0.66 0 1 0 C1.05422947 1.4370809 1.09289723 2.87475462 1.125 4.3125 C1.14820313 5.11300781 1.17140625 5.91351563 1.1953125 6.73828125 C1 9 1 9 -1 12 C-1.2226746 10.56465159 -1.42761906 9.12654475 -1.625 7.6875 C-1.74101562 6.88699219 -1.85703125 6.08648437 -1.9765625 5.26171875 C-2 3 -2 3 0 0 Z " fill="#29588A" transform="translate(18,84)"/>
<path d="M0 0 C2.62113708 0 4.50935112 0.31292445 7 1 C6.01 2.485 6.01 2.485 5 4 C3.35 3.67 1.7 3.34 0 3 C0 2.01 0 1.02 0 0 Z " fill="#C7C7C7" transform="translate(176,185)"/>
<path d="M0 0 C0.66 0 1.32 0 2 0 C1.67 3.63 1.34 7.26 1 11 C-0.88651353 7.22697294 -1.31450726 5.98375861 -1 2 C-0.67 1.34 -0.34 0.68 0 0 Z " fill="#1D2C4C" transform="translate(57,154)"/>
<path d="M0 0 C0.66 0.33 1.32 0.66 2 1 C0.35 2.65 -1.3 4.3 -3 6 C-3.99 5.67 -4.98 5.34 -6 5 C-6 4.34 -6 3.68 -6 3 C-4.03533587 1.93224776 -2.03144641 0.93446535 0 0 Z " fill="#12122F" transform="translate(145,143)"/>
<path d="M0 0 C0.66 0.33 1.32 0.66 2 1 C0.25 6.75 0.25 6.75 -2 9 C-2.33 8.34 -2.66 7.68 -3 7 C-2.06421005 4.64018187 -1.06652192 2.30368736 0 0 Z " fill="#2D507D" transform="translate(98,106)"/>
<path d="M0 0 C5.75 1.875 5.75 1.875 8 3 C5.69 3.66 3.38 4.32 1 5 C0.34 4.34 -0.32 3.68 -1 3 C-0.67 2.01 -0.34 1.02 0 0 Z " fill="#101230" transform="translate(177,201)"/>
<path d="M0 0 C0.33 0 0.66 0 1 0 C1 3.3 1 6.6 1 10 C0.01 9.67 -0.98 9.34 -2 9 C-1.41196203 5.97580475 -0.77321882 2.98241547 0 0 Z " fill="#1C2B5E" transform="translate(95,166)"/>
<path d="M0 0 C3.14624993 -0.26218749 4.61837017 -0.24754367 7.3125 1.5 C8.1478125 2.2425 8.1478125 2.2425 9 3 C7 4 7 4 3.9375 3.1875 C1 2 1 2 0 0 Z " fill="#1B2A5C" transform="translate(56,172)"/>
<path d="M0 0 C1.2099988 3.6299964 2.08626011 7.28412445 3 11 C0.9375 9.4375 0.9375 9.4375 -1 7 C-0.75 3.25 -0.75 3.25 0 0 Z " fill="#1E3265" transform="translate(20,164)"/>
<path d="M0 0 C0.33 0 0.66 0 1 0 C1.12375 0.94875 1.2475 1.8975 1.375 2.875 C1.71687177 6.08667191 1.71687177 6.08667191 4 8 C3.01 8.99 2.02 9.98 1 11 C0 10 0 10 -0.09765625 7.71484375 C-0.08605469 6.79832031 -0.07445312 5.88179687 -0.0625 4.9375 C-0.05347656 4.01839844 -0.04445313 3.09929687 -0.03515625 2.15234375 C-0.02355469 1.44207031 -0.01195312 0.73179687 0 0 Z " fill="#1E355A" transform="translate(16,155)"/>
<path d="M0 0 C0.12375 0.639375 0.2475 1.27875 0.375 1.9375 C0.58125 2.618125 0.7875 3.29875 1 4 C1.66 4.33 2.32 4.66 3 5 C3 6.65 3 8.3 3 10 C2.34 10 1.68 10 1 10 C-0.60725635 6.78548731 -0.05748185 3.56387464 0 0 Z " fill="#566586" transform="translate(121,89)"/>
<path d="M0 0 C1.32 0.33 2.64 0.66 4 1 C1.44931155 3.35448165 0.28982642 3.98327924 -3.25 4.1875 C-4.1575 4.125625 -5.065 4.06375 -6 4 C-6 3.67 -6 3.34 -6 3 C-4.35 3 -2.7 3 -1 3 C-0.67 2.01 -0.34 1.02 0 0 Z " fill="#161F50" transform="translate(177,123)"/>
<path d="M0 0 C1.98 0 3.96 0 6 0 C4.25 2.0625 4.25 2.0625 2 4 C-0.25 3.75 -0.25 3.75 -2 3 C-1.34 3 -0.68 3 0 3 C0 2.01 0 1.02 0 0 Z " fill="#10112A" transform="translate(183,123)"/>
<path d="M0 0 C1.65 0 3.3 0 5 0 C5.33 1.65 5.66 3.3 6 5 C4 5 4 5 2.4375 3.625 C1 2 1 2 0 0 Z " fill="#192A58" transform="translate(160,108)"/>
<path d="M0 0 C1.423125 0.2784375 1.423125 0.2784375 2.875 0.5625 C5.89868793 1.28686632 5.89868793 1.28686632 8 0 C8.33 0.99 8.66 1.98 9 3 C6 4 6 4 2.8125 2.5625 C1.884375 2.046875 0.95625 1.53125 0 1 C0 0.67 0 0.34 0 0 Z " fill="#224C86" transform="translate(199,65)"/>
</svg>
